<svg id="Layer_1" data-name="Layer 1" xmlns="http://www.w3.org/2000/svg" viewBox="0 0 16 14.41"><defs><style>.cls-1{fill:#ffcce0;}.cls-2{fill:#b6e2db;}.cls-3{fill:#f9e1ea;}.cls-4{fill:#593d4a;}.cls-5{fill:#fff;}.cls-6{fill:#1d685a;}.cls-7{fill:#e080ac;}.cls-8{fill:none;stroke:#e080ac;stroke-linecap:round;stroke-miterlimit:10;stroke-width:0.25px;}</style></defs><title>파비콘</title><path class="cls-1" d="M.81,6h0c-.14-.26-.34-.5-.49-.76a2.74,2.74,0,0,1,.1-2.74A3.79,3.79,0,0,1,2.71.9a2.89,2.89,0,0,1,1-.1,3,3,0,0,1,.91.3,5.13,5.13,0,0,1,1.24.82A3,3,0,0,1,8,1.64a2.59,2.59,0,0,0,.54.11,3.44,3.44,0,0,0,.78-.13c.43-.08,1,.15,1.51.08a1.88,1.88,0,0,0,.79-.5c.19-.13.5,0,.72-.08a3.61,3.61,0,0,1,1-.24,2.55,2.55,0,0,1,1.37.17,2,2,0,0,1,.77.86,4.67,4.67,0,0,1-.06,4.43,2.3,2.3,0,0,0-.29.64,1.75,1.75,0,0,0,.05.6,12.7,12.7,0,0,1,.44,3.23,4,4,0,0,1-1.26,2.92,4.69,4.69,0,0,1-1.51.77,16.94,16.94,0,0,1-5.25.71A11.3,11.3,0,0,1,5.49,15a13.25,13.25,0,0,1-3-1.13,3,3,0,0,1-1.16-.76,3.22,3.22,0,0,1-.47-.9L.32,11A1.6,1.6,0,0,1,.19,9.78c.11-.25.34-.43.41-.69s0-.61.06-.91.26-.41.36-.64A1.76,1.76,0,0,0,.81,6Z" transform="translate(0 -0.79)"/><path class="cls-2" d="M1.29,4.79h0c-.06-.4-.1-.81-.15-1.21a.81.81,0,0,1,0-.22c0-.12.12-.2.16-.31a1.35,1.35,0,0,0,.06-.35,1,1,0,0,1,.35-.63S1.81,2,1.84,2a.48.48,0,0,1,.09-.14c.08-.07.23,0,.31-.1s0-.05.07-.08a.3.3,0,0,1,.14-.06,2.26,2.26,0,0,1,1.74.24A.39.39,0,0,1,4.35,2a.27.27,0,0,1,0,.26.76.76,0,0,1-.2.2L3.39,3a5,5,0,0,0-.55.48,3.12,3.12,0,0,0-.7,1.32c-.05.2-.13.26-.34.24S1.32,5,1.29,4.79Z" transform="translate(0 -0.79)"/><path class="cls-2" d="M12.86,1.73A.69.69,0,0,1,13,1.62a.34.34,0,0,1,.14-.05,1,1,0,0,1,.58.09A1.92,1.92,0,0,0,14,1.8c.16.05.35,0,.47.11a.28.28,0,0,1,.09.1l.71.89a.39.39,0,0,1,.12.24,1.16,1.16,0,0,1,0,.18,1.87,1.87,0,0,0,0,.41A2.62,2.62,0,0,1,15,4.94.22.22,0,0,1,15,5a.19.19,0,0,1-.23,0,.89.89,0,0,1-.3-.25.73.73,0,0,1-.17-.26c0-.1,0-.2,0-.3A.89.89,0,0,0,14,3.8l-.34-.31a.53.53,0,0,1-.13-.13c-.08-.11-.09-.26-.17-.36a.84.84,0,0,0-.18-.15l-.62-.42a.54.54,0,0,1-.16-.14h0c-.11-.16,0-.19.14-.26A2,2,0,0,0,12.86,1.73Z" transform="translate(0 -0.79)"/><path class="cls-3" d="M5.64,8.09h0a1,1,0,0,0-.58.18c-.12.1-.19.26-.31.37s-.2.14-.29.22a1.23,1.23,0,0,0-.3.77l-.1.71a1.47,1.47,0,0,0,0,.47,1.58,1.58,0,0,0,.18.47,4.37,4.37,0,0,0,.84,1.07.54.54,0,0,0,.3.17c.21,0,.4-.16.6-.11s.26.25.43.33a.71.71,0,0,0,.22,0l1,.09a3,3,0,0,0,1.07,0l.4-.11a3,3,0,0,1,.42-.05l1.08-.06a1.84,1.84,0,0,0,.57-.09,1.42,1.42,0,0,0,.77-1.13c.07-.48,0-1,.06-1.43a1.16,1.16,0,0,0-.06-.72,2,2,0,0,0-.37-.34,2.41,2.41,0,0,1-.21-.24,2.71,2.71,0,0,0-1.4-.78,9.28,9.28,0,0,0-2.35-.22,2.14,2.14,0,0,0-.7.19A7.24,7.24,0,0,1,5.64,8.09Z" transform="translate(0 -0.79)"/><path class="cls-4" d="M8.89,6.84h0a.56.56,0,0,1,.56.45V7.4s.05.08.07.13a.83.83,0,0,1,0,.6.24.24,0,0,1,0,.1l-.08,0a.88.88,0,0,1-.3.1.32.32,0,0,1-.28-.13.29.29,0,0,1-.2.23.92.92,0,0,1-.33,0,.34.34,0,0,1-.22-.07S8,8.37,8,8.35s-.21,0-.31,0c-.31.07-.43-.26-.58-.45A.7.7,0,0,1,7,7.21c.15-.37.66-.4,1-.52a.57.57,0,0,1,.46-.05C8.62,6.72,8.68,6.84,8.89,6.84Z" transform="translate(0 -0.79)"/><ellipse class="cls-5" cx="5.81" cy="6.79" rx="1.28" ry="0.89" transform="translate(-2.64 8.91) rotate(-68.44)"/><ellipse class="cls-6" cx="6.17" cy="6.81" rx="0.91" ry="0.53" transform="translate(-2.43 9.25) rotate(-68.44)"/><path class="cls-2" d="M6.25,5.59c-.45-.18-1,.21-1.29.87l0,.12,1.79-.4A.78.78,0,0,0,6.25,5.59Z" transform="translate(0 -0.79)"/><ellipse class="cls-5" cx="11.05" cy="6.79" rx="1.28" ry="0.89" transform="translate(0.68 13.78) rotate(-68.44)"/><ellipse class="cls-6" cx="11.41" cy="6.81" rx="0.91" ry="0.53" transform="translate(0.88 14.12) rotate(-68.44)"/><path class="cls-2" d="M11.52,5.59c-.46-.18-1,.21-1.3.87,0,0,0,.08,0,.12L12,6.18A.78.78,0,0,0,11.52,5.59Z" transform="translate(0 -0.79)"/><path class="cls-4" d="M3.52,7.35a.25.25,0,0,0,0-.49.25.25,0,0,0,0,.49Z" transform="translate(0 -0.79)"/><path class="cls-4" d="M2.54,7.78a.25.25,0,0,0,0-.5.25.25,0,0,0,0,.5Z" transform="translate(0 -0.79)"/><path class="cls-4" d="M3.07,8.09,3,8.34a.12.12,0,0,0,0,.1.16.16,0,0,0,0,.09l.06.07.09.05H3.2a.28.28,0,0,0,.13,0l0,0a.24.24,0,0,0,.06-.11l.1-.24a.18.18,0,0,0,0-.1.17.17,0,0,0,0-.1L3.46,8a.2.2,0,0,0-.09,0H3.31a.2.2,0,0,0-.13,0L3.13,8a.3.3,0,0,0-.06.11Z" transform="translate(0 -0.79)"/><path class="cls-4" d="M13.32,7.3a.15.15,0,0,0,0-.3.15.15,0,0,0,0,.3Z" transform="translate(0 -0.79)"/><path class="cls-4" d="M12.51,7.86a.25.25,0,0,0,0-.5.25.25,0,0,0,0,.5Z" transform="translate(0 -0.79)"/><path class="cls-4" d="M13.22,8.36a.25.25,0,0,0,0-.49.25.25,0,0,0,0,.49Z" transform="translate(0 -0.79)"/><path class="cls-7" d="M10.09,9.89H10a1.17,1.17,0,0,1-.45-.51.11.11,0,0,1,.06-.14.1.1,0,0,1,.14,0,1,1,0,0,0,.36.41.11.11,0,0,1,0,.15A.12.12,0,0,1,10.09,9.89Z" transform="translate(0 -0.79)"/><path class="cls-7" d="M8.45,10.34a2.38,2.38,0,0,1-1.53-.61.12.12,0,0,1,0-.16.11.11,0,0,1,.15,0,2,2,0,0,0,2.75,0,.11.11,0,0,1,.16,0,.11.11,0,0,1,0,.15A2.3,2.3,0,0,1,8.45,10.34Z" transform="translate(0 -0.79)"/><path class="cls-8" d="M8.72,10.17s-.06,0-.07-.08a2,2,0,0,1-.12-.84A.38.38,0,0,1,8.63,9a.39.39,0,0,1,.15-.06.52.52,0,0,1,.43.18,1.3,1.3,0,0,1,.24.41l.12.25" transform="translate(0 -0.79)"/><path class="cls-8" d="M8.89,9.38a1.7,1.7,0,0,0,.22.58" transform="translate(0 -0.79)"/></svg>